<?xml version="1.0" encoding="UTF-8"?> <svg xmlns="http://www.w3.org/2000/svg" xmlns:xlink="http://www.w3.org/1999/xlink" version="1.1" width="346" height="113"><defs><clipPath id="HlbRbkiwlFbh"><path fill="none" stroke="none" d=" M 0 0 L 346 0 L 346 113 L 0 113 L 0 0 Z"></path></clipPath></defs><g transform="scale(1,1)" clip-path="url(#HlbRbkiwlFbh)"><g transform="translate(-449,-386)"><rect fill="rgb(255,255,255)" stroke="none" x="0" y="0" width="1540" height="1017" fill-opacity="1"></rect><path fill="none" stroke="rgb(0,0,0)" paint-order="fill stroke markers" d=" M 526.9399035089997 451.8569023706334 C 526.9399035089997 461.7585398137028 518.9130403984996 469.78540292420297 509.01140295543007 469.78540292420297 C 499.1097655123607 469.78540292420297 491.0829024018605 461.7585398137028 491.0829024018605 451.8569023706334 C 491.0829024018605 441.955264927564 499.1097655123607 433.92840181706384 509.01140295543007 433.92840181706384 C 518.9130403984996 433.92840181706384 526.9399035089997 441.955264927564 526.9399035089997 451.8569023706334 Z" stroke-opacity="1" stroke-linecap="round" stroke-linejoin="round" stroke-miterlimit="10" stroke-width="3.5"></path><path fill="none" stroke="rgb(0,0,0)" paint-order="fill stroke markers" d=" M 753.1929458220166 450.39829789664213 C 753.1929458220166 460.2999353397115 745.1660827115164 468.3267984502117 735.264445268447 468.3267984502117 C 725.3628078253776 468.3267984502117 717.3359447148774 460.2999353397115 717.3359447148774 450.39829789664213 C 717.3359447148774 440.4966604535727 725.3628078253776 432.46979734307257 735.264445268447 432.46979734307257 C 745.1660827115164 432.46979734307257 753.1929458220166 440.4966604535727 753.1929458220166 450.39829789664213 Z" stroke-opacity="1" stroke-linecap="round" stroke-linejoin="round" stroke-miterlimit="10" stroke-width="3.5"></path><path fill="none" stroke="rgb(21,101,192)" paint-order="fill stroke markers" d=" M 722.0186353703468 430.05250497111234 C 658.8118362074691 391.6242862585209 579.6166193426533 390.9751451366782 515.788384387532 428.36209307781064" stroke-opacity="0.8" stroke-linecap="round" stroke-linejoin="round" stroke-miterlimit="10" stroke-width="2.5"></path><path fill="none" stroke="rgb(0,0,0)" paint-order="fill stroke markers" d=" M 478.644055509375 469.6090713910989 L 766.4519332421613 469.24290360772386" stroke-opacity="1" stroke-linecap="round" stroke-linejoin="round" stroke-miterlimit="10" stroke-width="3.5"></path><path fill="none" stroke="rgb(0,0,0)" paint-order="fill stroke markers" d=" M 460.53417506469367 444.79872838206364 L 487.95570297836025 444.78358138464347" stroke-opacity="0.8" stroke-linecap="round" stroke-linejoin="round" stroke-miterlimit="10" stroke-width="2.5"></path><path fill="none" stroke="rgb(0,0,0)" paint-order="fill stroke markers" d=" M 449.41262537845563 451.5245514487819 L 486.02940371596026 451.5245514487819" stroke-opacity="0.8" stroke-linecap="round" stroke-linejoin="round" stroke-miterlimit="10" stroke-width="2.5"></path><path fill="none" stroke="rgb(0,0,0)" paint-order="fill stroke markers" d=" M 461.2826050751836 458.9052066647674 L 488.7041329888502 458.8900596673472" stroke-opacity="0.8" stroke-linecap="round" stroke-linejoin="round" stroke-miterlimit="10" stroke-width="2.5"></path><path fill="none" stroke="rgb(0,0,0)" paint-order="fill stroke markers" d=" M 676.5099295891575 451.97198446249723 L 713.1267079266622 451.97198446249723" stroke-opacity="0.8" stroke-linecap="round" stroke-linejoin="round" stroke-miterlimit="10" stroke-width="2.5"></path><path fill="none" stroke="rgb(0,0,0)" paint-order="fill stroke markers" d=" M 686.3136225974961 445.72842625353906 L 713.7351505111626 445.7132792561188" stroke-opacity="0.8" stroke-linecap="round" stroke-linejoin="round" stroke-miterlimit="10" stroke-width="2.5"></path><path fill="none" stroke="rgb(0,0,0)" paint-order="fill stroke markers" d=" M 687.212208679594 458.6081600969438 L 714.6337365932607 458.59301309952355" stroke-opacity="0.8" stroke-linecap="round" stroke-linejoin="round" stroke-miterlimit="10" stroke-width="2.5"></path><path fill="none" stroke="rgb(21,101,192)" paint-order="fill stroke markers" d=" M 507.7300250607187 469.7395532588627 L 508.11175714148345 485.48008325393573" stroke-opacity="0.8" stroke-linecap="round" stroke-linejoin="round" stroke-miterlimit="10" stroke-width="2.5"></path><path fill="none" stroke="rgb(21,101,192)" paint-order="fill stroke markers" d=" M 734.5830451769687 471.0255681121294 L 734.9647772577334 486.7660981072024" stroke-opacity="0.8" stroke-linecap="round" stroke-linejoin="round" stroke-miterlimit="10" stroke-width="2.5"></path><path fill="none" stroke="rgb(21,101,192)" paint-order="fill stroke markers" d=" M 508.0618859291219 483.42366894237244 L 603.2768562832209 483.42245948870897" stroke-opacity="0.8" stroke-linecap="round" stroke-linejoin="round" stroke-miterlimit="10" stroke-width="2.5"></path><path fill="none" stroke="rgb(21,101,192)" paint-order="fill stroke markers" d=" M 639.2354009623277 483.6808719130258 L 734.4503713164268 483.6796624593623" stroke-opacity="0.8" stroke-linecap="round" stroke-linejoin="round" stroke-miterlimit="10" stroke-width="2.5"></path><path fill="none" stroke="rgb(0,0,0)" paint-order="fill stroke markers" d=" M 530.9552671272048 442.7627848572737 L 542.0814748947549 442.763080751828" stroke-opacity="0.8" stroke-linecap="round" stroke-linejoin="round" stroke-miterlimit="10" stroke-width="2.5"></path><path fill="rgb(0,0,0)" stroke="none" paint-order="stroke fill markers" fill-rule="evenodd" d=" M 559.0814748887432 442.7635328562222 L 542.0813618686564 447.01308075032506 L 542.0815879208535 438.51308075333094 Z" fill-opacity="0.8"></path><path fill="none" stroke="rgb(0,0,0)" paint-order="fill stroke markers" d=" M 758.8226074651202 443.03565973984126 L 769.9488152326703 443.0359556343956" stroke-opacity="0.8" stroke-linecap="round" stroke-linejoin="round" stroke-miterlimit="10" stroke-width="2.5"></path><path fill="rgb(0,0,0)" stroke="none" paint-order="stroke fill markers" fill-rule="evenodd" d=" M 786.9488152266586 443.03640773878976 L 769.9487022065717 447.28595563289264 L 769.9489282587689 438.7859556358985 Z" fill-opacity="0.8"></path><path fill="rgb(255,255,255)" stroke="none" paint-order="stroke fill markers" d=" M 607 374 L 636 374 L 636 420 L 607 420 L 607 374 Z" fill-opacity="1"></path><text fill="rgb(0,0,0)" stroke="none" font-family="geogebra-sans-serif, sans-serif" font-size="27px" font-style="normal" font-weight="normal" text-decoration="normal" x="610" y="404" text-anchor="start" fill-opacity="1"> t </text><text fill="rgb(0,0,0)" stroke="none" font-family="geogebra-sans-serif, sans-serif" font-size="27px" font-style="normal" font-weight="normal" text-decoration="normal" x="618" y="493" text-anchor="start" fill-opacity="1">d</text><g transform="scale(28,28) translate(27.285714285714285,15.116875)" fill="rgb(0,0,0)"><path fill="" stroke="none" paint-order="stroke fill markers" d=" M 0.089 -0.23 Q 0.059 -0.235 0.056 -0.25 Q 0.056 -0.27 0.089 -0.27 L 0.858 -0.27 Q 0.79 -0.32 0.756 -0.399 L 0.755 -0.4 Q 0.75 -0.413 0.75 -0.416 Q 0.75 -0.428 0.765 -0.428 Q 0.776 -0.428 0.782 -0.414 Q 0.826 -0.315 0.918 -0.268 L 0.919 -0.268 L 0.92 -0.267 L 0.921 -0.267 Q 0.928 -0.263 0.935 -0.26 Q 0.939 -0.26 0.942 -0.25 Q 0.942 -0.243 0.933 -0.238 Q 0.931 -0.238 0.928 -0.236 Q 0.829 -0.189 0.783 -0.086 L 0.783 -0.086 Q 0.782 -0.085 0.781 -0.082 Q 0.776 -0.072 0.765 -0.072 Q 0.75 -0.072 0.75 -0.084 Q 0.75 -0.099 0.779 -0.144 Q 0.812 -0.196 0.858 -0.23 L 0.858 -0.23 Z"></path><g transform="translate(-27.285714285714285,-15.116875)"><g transform="translate(27.548213785714285,15.4947575)"><path fill="" stroke="none" paint-order="stroke fill markers" d=" M 0.446 -0.444 L 0.274 0 L 0.186 0 L 0.014 -0.444 L 0.092 -0.444 L 0.189 -0.185 Q 0.225 -0.08700000000000001 0.231 -0.053 L 0.232 -0.053 Q 0.24 -0.1 0.292 -0.23600000000000002 L 0.371 -0.444 L 0.446 -0.444 Z"></path></g></g></g><g transform="scale(28,28) translate(19.321428571428573,15.152589285714287)" fill="rgb(0,0,0)"><path fill="" stroke="none" paint-order="stroke fill markers" d=" M 0.089 -0.23 Q 0.059 -0.235 0.056 -0.25 Q 0.056 -0.27 0.089 -0.27 L 0.858 -0.27 Q 0.79 -0.32 0.756 -0.399 L 0.755 -0.4 Q 0.75 -0.413 0.75 -0.416 Q 0.75 -0.428 0.765 -0.428 Q 0.776 -0.428 0.782 -0.414 Q 0.826 -0.315 0.918 -0.268 L 0.919 -0.268 L 0.92 -0.267 L 0.921 -0.267 Q 0.928 -0.263 0.935 -0.26 Q 0.939 -0.26 0.942 -0.25 Q 0.942 -0.243 0.933 -0.238 Q 0.931 -0.238 0.928 -0.236 Q 0.829 -0.189 0.783 -0.086 L 0.783 -0.086 Q 0.782 -0.085 0.781 -0.082 Q 0.776 -0.072 0.765 -0.072 Q 0.75 -0.072 0.75 -0.084 Q 0.75 -0.099 0.779 -0.144 Q 0.812 -0.196 0.858 -0.23 L 0.858 -0.23 Z"></path><g transform="translate(-19.321428571428573,-15.152589285714287)"><g transform="translate(19.583928071428574,15.530471785714287)"><path fill="" stroke="none" paint-order="stroke fill markers" d=" M 0.446 -0.444 L 0.274 0 L 0.186 0 L 0.014 -0.444 L 0.092 -0.444 L 0.189 -0.185 Q 0.225 -0.08700000000000001 0.231 -0.053 L 0.232 -0.053 Q 0.24 -0.1 0.292 -0.23600000000000002 L 0.371 -0.444 L 0.446 -0.444 Z"></path></g></g></g></g></g></svg> 